<?xml version="1.0" encoding="UTF-8"?>
<svg version="1.1" xmlns="http://www.w3.org/2000/svg" xmlns:xlink="http://www.w3.org/1999/xlink" >
	<style>:root>svg{display:none}:root>svg:target{display:block}</style>
	<svg id="star" width="27" height="27" viewBox="0 0 27 27" fill="none" xmlns="http://www.w3.org/2000/svg">
		<g clip-path="url(#clip0)">
			<path fill-rule="evenodd" clip-rule="evenodd" d="M4.8363 25.0594C4.70467 25.8086 5.4438 26.3942 6.09517 26.06L13.5033 22.253L20.9097 26.06C21.5611 26.3942 22.3002 25.8086 22.1686 25.061L20.768 17.0792L26.713 11.4159C27.2682 10.886 26.9797 9.91741 26.2355 9.81279L17.9701 8.63829L14.2846 1.33648C14.2144 1.18846 14.1036 1.06341 13.9652 0.975845C13.8267 0.88828 13.6663 0.841797 13.5025 0.841797C13.3386 0.841797 13.1782 0.88828 13.0397 0.975845C12.9013 1.06341 12.7905 1.18846 12.7203 1.33648L9.0348 8.63998L0.769425 9.81448C0.0252374 9.9191 -0.263325 10.8877 0.291862 11.4176L6.23693 17.0809L4.8363 25.0627V25.0594ZM13.1135 20.39L6.89336 23.5862L8.06449 16.9087C8.09192 16.755 8.08119 16.5969 8.03323 16.4483C7.98527 16.2997 7.90155 16.1652 7.78943 16.0565L2.88555 11.3822L9.7233 10.4102C9.86489 10.3888 9.99919 10.3334 10.1147 10.2488C10.2302 10.1641 10.3235 10.0527 10.3865 9.92416L13.5033 3.75129L16.6184 9.92416C16.6815 10.0527 16.7747 10.1641 16.8902 10.2488C17.0057 10.3334 17.14 10.3888 17.2816 10.4102L24.1194 11.3805L19.2155 16.0549C19.103 16.1636 19.019 16.2984 18.971 16.4473C18.9231 16.5963 18.9125 16.7548 18.9404 16.9087L20.1116 23.5862L13.8914 20.39C13.7711 20.328 13.6378 20.2957 13.5025 20.2957C13.3671 20.2957 13.2338 20.328 13.1135 20.39V20.39Z" fill="#5661CB"/>
		</g>
		<defs>
			<clipPath id="clip0">
				<rect width="27" height="27" fill="white"/>
			</clipPath>
		</defs>
	</svg>

	<svg id="bag" width="27" height="27" viewBox="0 0 27 27" fill="none" xmlns="http://www.w3.org/2000/svg">
		<path d="M9.54239 26.9998C10.658 26.9998 11.5623 26.0755 11.5623 24.9352C11.5623 23.795 10.658 22.8706 9.54239 22.8706C8.42681 22.8706 7.52246 23.795 7.52246 24.9352C7.52246 26.0755 8.42681 26.9998 9.54239 26.9998Z" fill="#5661CB"/>
		<path d="M21.8146 26.9998C22.9302 26.9998 23.8345 26.0755 23.8345 24.9352C23.8345 23.795 22.9302 22.8706 21.8146 22.8706C20.699 22.8706 19.7947 23.795 19.7947 24.9352C19.7947 26.0755 20.699 26.9998 21.8146 26.9998Z" fill="#5661CB"/>
		<path d="M27 4.17577C26.9219 4.0064 26.8818 3.3246 26.88 3.15364C26.8818 2.98268 26.9219 2.81195 27 2.64258H8L9 4.17577H18H27Z" fill="#5661CB"/>
		<path d="M24.5078 10.0242H24.1307L23.0086 15.0711H9.5424L5.43971 1.79329C5.39533 1.6524 5.31827 1.52457 5.21509 1.42071C5.11192 1.31685 4.9857 1.24004 4.8472 1.19684L1.16644 0.0406531C1.05327 0.00510494 0.934346 -0.00730978 0.816474 0.00411763C0.698603 0.015545 0.584087 0.0505909 0.479466 0.107254C0.268175 0.221691 0.110013 0.417233 0.0397743 0.650863C-0.0304642 0.884494 -0.00702567 1.13707 0.104934 1.35304C0.216893 1.56901 0.408202 1.73067 0.636774 1.80246L3.85968 2.81183L7.98032 16.1172L6.50802 17.3468L6.39131 17.466C6.02713 17.895 5.82071 18.4404 5.8076 19.0082C5.79449 19.576 5.97552 20.1307 6.31949 20.5767C6.56418 20.8809 6.87512 21.1223 7.22742 21.2816C7.57972 21.441 7.96362 21.5138 8.3484 21.4943H23.3317C23.5698 21.4943 23.7982 21.3977 23.9665 21.2256C24.1349 21.0535 24.2295 20.8201 24.2295 20.5767C24.2295 20.3334 24.1349 20.1 23.9665 19.9279C23.7982 19.7558 23.5698 19.6591 23.3317 19.6591H8.20476C8.10138 19.6555 8.00066 19.6247 7.91233 19.5697C7.82399 19.5147 7.75103 19.4373 7.70049 19.3451C7.64995 19.2528 7.62354 19.1488 7.62381 19.0431C7.62407 18.9374 7.65101 18.8335 7.70202 18.7415L9.86558 16.9063H23.7268C23.9343 16.9115 24.1371 16.843 24.3008 16.7125C24.4645 16.582 24.5789 16.3976 24.6245 16.1906L26.034 9.84989C25.5334 9.96723 25.0213 10.0257 24.5078 10.0242Z" fill="#5661CB"/>
	</svg>
	<svg id="bag_1" width="28" height="29" viewBox="0 0 28 29" fill="none" xmlns="http://www.w3.org/2000/svg">
		<g clip-path="url(#clip0)">
			<path d="M10.6427 21.4297C8.69335 21.4297 7.10742 23.0156 7.10742 24.965C7.10742 26.9144 8.69335 28.5003 10.6427 28.5003C12.5921 28.5003 14.1781 26.9144 14.1781 24.965C14.1781 23.0156 12.5921 21.4297 10.6427 21.4297ZM10.6427 26.3791C9.86284 26.3791 9.22863 25.7449 9.22863 24.965C9.22863 24.1851 9.86284 23.5509 10.6427 23.5509C11.4222 23.5509 12.0568 24.1851 12.0568 24.965C12.0568 25.7448 11.4226 26.3791 10.6427 26.3791Z" fill="#0F2438" stroke="white" stroke-width="0.3"/>
			<path d="M21.1076 21.4297C19.1582 21.4297 17.5723 23.0156 17.5723 24.965C17.5723 26.9144 19.1582 28.5003 21.1076 28.5003C23.057 28.5003 24.6429 26.9144 24.6429 24.965C24.6429 23.0156 23.057 21.4297 21.1076 21.4297ZM21.1076 26.3791C20.3277 26.3791 19.6935 25.7449 19.6935 24.965C19.6935 24.1851 20.3277 23.5509 21.1076 23.5509C21.8875 23.5509 22.5217 24.1851 22.5217 24.965C22.5217 25.7448 21.8875 26.3791 21.1076 26.3791Z" fill="#0F2438" stroke="white" stroke-width="0.3"/>
			<path d="M27.24 7.40559C27.0384 7.15245 26.733 7.00506 26.4099 7.00506H7.83899L6.87491 2.1327C6.79042 1.70597 6.45387 1.37402 6.02572 1.29555L1.78336 0.517784C1.20608 0.411363 0.654557 0.793572 0.548847 1.36981C0.443136 1.94605 0.82458 2.49861 1.40087 2.60432L4.93406 3.25198L8.04653 18.9837C8.1448 19.4804 8.58071 19.8385 9.08695 19.8385H23.9352C24.4291 19.8385 24.8572 19.4981 24.9686 19.0162L27.4433 8.30427C27.5161 7.98927 27.4412 7.65836 27.24 7.40559ZM23.0917 17.7174H9.95801L8.25861 9.1266H25.076L23.0917 17.7174Z" fill="#0F2438" stroke="white" stroke-width="0.3"/>
		</g>
		<defs>
			<clipPath id="clip0">
				<rect width="28" height="28" fill="white" transform="translate(0 0.5)"/>
			</clipPath>
		</defs>
	</svg>

	<svg id="bag_2" width="17" height="17" viewBox="0 0 17 17" fill="none" xmlns="http://www.w3.org/2000/svg">
		<g clip-path="url(#clip0)">
			<path d="M6.46089 12.707C5.27734 12.707 4.31445 13.6699 4.31445 14.8535C4.31445 16.037 5.27734 16.9999 6.46089 16.9999C7.64445 16.9999 8.60733 16.037 8.60733 14.8535C8.60733 13.6699 7.64441 12.707 6.46089 12.707ZM6.46089 15.712C5.98739 15.712 5.60233 15.327 5.60233 14.8535C5.60233 14.38 5.98739 13.9949 6.46089 13.9949C6.93417 13.9949 7.31946 14.38 7.31946 14.8535C7.31946 15.3269 6.9344 15.712 6.46089 15.712Z" fill="white"/>
			<path d="M12.8144 12.707C11.6309 12.707 10.668 13.6699 10.668 14.8535C10.668 16.037 11.6309 16.9999 12.8144 16.9999C13.998 16.9999 14.9608 16.037 14.9608 14.8535C14.9608 13.6699 13.998 12.707 12.8144 12.707ZM12.8144 15.712C12.3409 15.712 11.9558 15.327 11.9558 14.8535C11.9558 14.38 12.3409 13.9949 12.8144 13.9949C13.2879 13.9949 13.673 14.38 13.673 14.8535C13.673 15.3269 13.2879 15.712 12.8144 15.712Z" fill="white"/>
			<path d="M16.5383 4.19268C16.4159 4.03898 16.2305 3.9495 16.0343 3.9495H4.75911L4.17377 0.991282C4.12247 0.732199 3.91814 0.530657 3.6582 0.48301L1.08247 0.0107975C0.731983 -0.0538156 0.397131 0.17824 0.332949 0.5281C0.268768 0.87796 0.500359 1.21344 0.850252 1.27762L2.9954 1.67085L4.88511 11.2223C4.94478 11.5238 5.20944 11.7412 5.5168 11.7412H14.5318C14.8317 11.7412 15.0916 11.5346 15.1592 11.242L16.6617 4.73831C16.7059 4.54706 16.6604 4.34615 16.5383 4.19268ZM14.0197 10.4534H6.04566L5.01387 5.23758H15.2244L14.0197 10.4534Z" fill="white"/>
		</g>
		<defs>
			<clipPath id="clip0">
				<rect width="17" height="17" fill="white"/>
			</clipPath>
		</defs>
	</svg>

	<svg id="placeholder" width="20" height="21" viewBox="0 0 20 21" fill="none" xmlns="http://www.w3.org/2000/svg">
		<g clip-path="url(#clip0)">
			<path d="M10 0.5C6.12297 0.5 2.96875 3.65422 2.96875 7.53125C2.96875 8.84117 3.3316 10.1195 4.01832 11.2286L9.59977 20.223C9.70668 20.3953 9.89504 20.5 10.0976 20.5C10.0992 20.5 10.1007 20.5 10.1023 20.5C10.3066 20.4984 10.4954 20.3905 10.6003 20.2152L16.0395 11.1336C16.6883 10.048 17.0312 8.80231 17.0312 7.53125C17.0312 3.65422 13.877 0.5 10 0.5ZM15.0338 10.532L10.0887 18.7885L5.01434 10.6112C4.44273 9.68805 4.13281 8.62305 4.13281 7.53125C4.13281 4.30039 6.76914 1.66406 10 1.66406C13.2309 1.66406 15.8633 4.30039 15.8633 7.53125C15.8633 8.59066 15.5738 9.62844 15.0338 10.532Z" fill="white"/>
			<path d="M10 4.01562C8.06148 4.01562 6.48438 5.59273 6.48438 7.53125C6.48438 9.45738 8.03582 11.0469 10 11.0469C11.9884 11.0469 13.5156 9.43621 13.5156 7.53125C13.5156 5.59273 11.9385 4.01562 10 4.01562ZM10 9.88281C8.7009 9.88281 7.64844 8.82684 7.64844 7.53125C7.64844 6.23891 8.70766 5.17969 10 5.17969C11.2923 5.17969 12.3477 6.23891 12.3477 7.53125C12.3477 8.80793 11.3197 9.88281 10 9.88281Z" fill="white"/>
		</g>
		<defs>
			<clipPath id="clip0">
				<rect width="20" height="20" fill="white" transform="translate(0 0.5)"/>
			</clipPath>
		</defs>
	</svg>

	<svg id="placeholder_2" width="32" height="33" viewBox="0 0 32 33" fill="none" xmlns="http://www.w3.org/2000/svg">
		<g clip-path="url(#clip0)">
			<path d="M16 0.5C9.79675 0.5 4.75 5.54675 4.75 11.75C4.75 13.8459 5.33056 15.8913 6.42931 17.6658L15.3596 32.0568C15.5307 32.3325 15.8321 32.5 16.1562 32.5C16.1587 32.5 16.1611 32.5 16.1636 32.5C16.4906 32.4974 16.7926 32.3248 16.9605 32.0443L25.6632 17.5138C26.7013 15.7768 27.25 13.7837 27.25 11.75C27.25 5.54675 22.2033 0.5 16 0.5ZM24.0541 16.5511L16.142 29.7616L8.02294 16.6779C7.10838 15.2009 6.6125 13.4969 6.6125 11.75C6.6125 6.58063 10.8306 2.3625 16 2.3625C21.1694 2.3625 25.3813 6.58063 25.3813 11.75C25.3813 13.4451 24.9181 15.1055 24.0541 16.5511Z" fill="#0F2438"/>
			<path d="M16 6.125C12.8984 6.125 10.375 8.64838 10.375 11.75C10.375 14.8318 12.8573 17.375 16 17.375C19.1814 17.375 21.625 14.7979 21.625 11.75C21.625 8.64838 19.1016 6.125 16 6.125ZM16 15.5125C13.9214 15.5125 12.2375 13.8229 12.2375 11.75C12.2375 9.68225 13.9323 7.9875 16 7.9875C18.0677 7.9875 19.7563 9.68225 19.7563 11.75C19.7563 13.7927 18.1115 15.5125 16 15.5125Z" fill="#0F2438"/>
		</g>
		<defs>
			<clipPath id="clip0">
				<rect width="32" height="32" fill="white" transform="translate(0 0.5)"/>
			</clipPath>
		</defs>
	</svg>

	<svg id="clock" width="32" height="33" viewBox="0 0 32 33" fill="none" xmlns="http://www.w3.org/2000/svg">
		<g clip-path="url(#clip0)">
			<path d="M16 0.5C7.16343 0.5 0 7.66343 0 16.5C0 25.3365 7.16343 32.4999 16 32.4999C24.8365 32.4999 31.9999 25.3365 31.9999 16.5C31.9906 7.66738 24.8326 0.509442 16 0.5ZM16 30.2142C8.42578 30.2142 2.28569 24.0742 2.28569 16.5C2.28569 8.92578 8.42578 2.78569 16 2.78569C23.5742 2.78569 29.7142 8.92578 29.7142 16.5C29.7061 24.0708 23.5708 30.2061 16 30.2142Z" fill="#0F2438"/>
			<path d="M16.0006 6.21387C15.3693 6.21387 14.8577 6.72554 14.8577 7.35675V15.3568H6.85772C6.22652 15.3568 5.71484 15.8684 5.71484 16.4996C5.71484 17.1308 6.22652 17.6425 6.85772 17.6425H16.0006C16.6318 17.6425 17.1434 17.1308 17.1434 16.4996V7.35675C17.1434 6.72554 16.6318 6.21387 16.0006 6.21387Z" fill="#0F2438"/>
		</g>
		<defs>
			<clipPath id="clip0">
				<rect width="32" height="32" fill="white" transform="translate(0 0.5)"/>
			</clipPath>
		</defs>
	</svg>
	<svg id="whatsApp" width="12" height="13" viewBox="0 0 12 13" fill="none" xmlns="http://www.w3.org/2000/svg">
		<g clip-path="url(#clip0)">
			<path d="M6.0015 0.5H5.9985C2.69025 0.5 0 3.191 0 6.5C0 7.8125 0.423 9.029 1.14225 10.0168L0.3945 12.2458L2.70075 11.5085C3.6495 12.137 4.78125 12.5 6.0015 12.5C9.30975 12.5 12 9.80825 12 6.5C12 3.19175 9.30975 0.5 6.0015 0.5Z" fill="#4CAF50"/>
			<path d="M9.49242 8.97264C9.34767 9.38139 8.77317 9.72039 8.31492 9.81939C8.00142 9.88614 7.59192 9.93939 6.21342 9.36789C4.45017 8.63739 3.31467 6.84564 3.22617 6.72939C3.14142 6.61314 2.51367 5.78064 2.51367 4.91964C2.51367 4.05864 2.95092 3.63939 3.12717 3.45939C3.27192 3.31164 3.51117 3.24414 3.74067 3.24414C3.81492 3.24414 3.88167 3.24789 3.94167 3.25089C4.11792 3.25839 4.20642 3.26889 4.32267 3.54714C4.46742 3.89589 4.81992 4.75689 4.86192 4.84539C4.90467 4.93389 4.94742 5.05389 4.88742 5.17014C4.83117 5.29014 4.78167 5.34339 4.69317 5.44539C4.60467 5.54739 4.52067 5.62539 4.43217 5.73489C4.35117 5.83014 4.25967 5.93214 4.36167 6.10839C4.46367 6.28089 4.81617 6.85614 5.33517 7.31814C6.00492 7.91439 6.54792 8.10489 6.74217 8.18589C6.88692 8.24589 7.05942 8.23164 7.16517 8.11914C7.29942 7.97439 7.46517 7.73439 7.63392 7.49814C7.75392 7.32864 7.90542 7.30764 8.06442 7.36764C8.22642 7.42389 9.08367 7.84764 9.25992 7.93539C9.43617 8.02389 9.55242 8.06589 9.59517 8.14014C9.63717 8.21439 9.63717 8.56314 9.49242 8.97264Z" fill="#FAFAFA"/>
		</g>
		<defs>
			<clipPath id="clip0">
				<rect width="12" height="12" fill="white" transform="translate(0 0.5)"/>
			</clipPath>
		</defs>
	</svg>
	<svg id="user" width="28" height="29" viewBox="0 0 28 29" fill="none" xmlns="http://www.w3.org/2000/svg">
		<g clip-path="url(#clip0)">
			<path d="M13.8007 13.9877C15.6537 13.9877 17.258 13.3232 18.5692 12.0119C19.88 10.7009 20.5448 9.09683 20.5448 7.24365C20.5448 5.39111 19.8802 3.7868 18.569 2.47537C17.2578 1.16458 15.6535 0.5 13.8007 0.5C11.9475 0.5 10.3434 1.16458 9.03244 2.47559C7.72144 3.78659 7.05664 5.3909 7.05664 7.24365C7.05664 9.09683 7.72144 10.7011 9.03244 12.0121C10.3439 13.3229 11.9482 13.9877 13.8007 13.9877ZM10.1928 3.63577C11.1988 2.62982 12.3788 2.14084 13.8007 2.14084C15.2224 2.14084 16.4026 2.62982 17.4088 3.63577C18.4148 4.64194 18.904 5.8222 18.904 7.24365C18.904 8.66553 18.4148 9.84558 17.4088 10.8517C16.4026 11.8579 15.2224 12.3469 13.8007 12.3469C12.3793 12.3469 11.1992 11.8577 10.1928 10.8517C9.18668 9.84579 8.69748 8.66553 8.69748 7.24365C8.69748 5.8222 9.18668 4.64194 10.1928 3.63577Z" fill="#0F2438"/>
			<path d="M25.6008 22.0309C25.563 21.4853 25.4865 20.8902 25.3739 20.2617C25.2603 19.6285 25.114 19.0299 24.9388 18.4828C24.7576 17.9174 24.5117 17.359 24.2073 16.8239C23.8918 16.2684 23.521 15.7848 23.1048 15.3868C22.6697 14.9705 22.1369 14.6357 21.5208 14.3915C20.9069 14.1487 20.2265 14.0256 19.4987 14.0256C19.2128 14.0256 18.9364 14.1429 18.4026 14.4904C18.074 14.7047 17.6897 14.9525 17.2607 15.2266C16.894 15.4603 16.3971 15.6793 15.7833 15.8775C15.1845 16.0713 14.5766 16.1695 13.9763 16.1695C13.3764 16.1695 12.7685 16.0713 12.1693 15.8775C11.5562 15.6795 11.0591 15.4605 10.6929 15.2268C10.268 14.9553 9.88348 14.7075 9.55002 14.4902C9.0166 14.1427 8.74017 14.0254 8.45435 14.0254C7.72632 14.0254 7.04614 14.1487 6.4324 14.3918C5.81674 14.6355 5.28375 14.9702 4.84818 15.387C4.43204 15.7852 4.06119 16.2686 3.74588 16.8239C3.44189 17.359 3.1958 17.9172 3.01465 18.4831C2.83969 19.0302 2.69336 19.6285 2.57971 20.2617C2.46692 20.8893 2.39066 21.4847 2.35284 22.0316C2.31567 22.5663 2.29688 23.1227 2.29688 23.685C2.29688 25.1466 2.76151 26.3299 3.67773 27.2025C4.58264 28.0636 5.77979 28.5003 7.23605 28.5003H20.7182C22.1741 28.5003 23.3712 28.0636 24.2763 27.2025C25.1928 26.3305 25.6574 25.1468 25.6574 23.6848C25.6572 23.1206 25.6382 22.5641 25.6008 22.0309ZM23.145 26.0137C22.5471 26.5828 21.7532 26.8594 20.718 26.8594H7.23605C6.20062 26.8594 5.4068 26.5828 4.80908 26.0139C4.22269 25.4557 3.93771 24.6937 3.93771 23.685C3.93771 23.1603 3.95502 22.6423 3.98962 22.145C4.02338 21.6571 4.09238 21.1211 4.1947 20.5516C4.29575 19.9891 4.42435 19.4612 4.5773 18.9834C4.72406 18.5251 4.92422 18.0714 5.17245 17.6343C5.40936 17.2178 5.68195 16.8604 5.98273 16.5724C6.26407 16.303 6.61868 16.0826 7.03653 15.9172C7.42297 15.7643 7.85727 15.6805 8.32874 15.6679C8.3862 15.6985 8.48853 15.7568 8.6543 15.8649C8.99161 16.0847 9.3804 16.3355 9.81021 16.61C10.2947 16.9189 10.9189 17.1979 11.6647 17.4387C12.4271 17.6852 13.2047 17.8104 13.9765 17.8104C14.7483 17.8104 15.5261 17.6852 16.2881 17.4389C17.0345 17.1977 17.6585 16.9189 18.1436 16.6096C18.5835 16.3285 18.9614 16.0849 19.2987 15.8649C19.4645 15.757 19.5668 15.6985 19.6243 15.6679C20.0959 15.6805 20.5302 15.7643 20.9169 15.9172C21.3345 16.0826 21.6891 16.3033 21.9705 16.5724C22.2713 16.8602 22.5439 17.2176 22.7808 17.6346C23.0292 18.0714 23.2296 18.5254 23.3761 18.9832C23.5293 19.4617 23.6581 19.9893 23.7589 20.5514C23.8611 21.1219 23.9303 21.6581 23.964 22.1452V22.1456C23.9988 22.641 24.0164 23.1588 24.0166 23.685C24.0164 24.6939 23.7314 25.4557 23.145 26.0137Z" fill="#0F2438"/>
		</g>
		<defs>
			<clipPath id="clip0">
				<rect width="28" height="28.0001" fill="white" transform="translate(0 0.5)"/>
			</clipPath>
		</defs>
	</svg>

	<svg id="like" width="28" height="29" viewBox="0 0 28 29" fill="none" xmlns="http://www.w3.org/2000/svg">
		<path d="M14 26.9422C13.6014 26.9422 13.217 26.7978 12.9175 26.5355C11.7864 25.5464 10.6959 24.6169 9.73372 23.797L9.7288 23.7928C6.90792 21.3889 4.47198 19.3129 2.77709 17.2679C0.882475 14.9817 0 12.8141 0 10.4461C0 8.14534 0.788908 6.02279 2.22125 4.46911C3.67068 2.89706 5.6595 2.03125 7.82201 2.03125C9.43828 2.03125 10.9185 2.54224 12.2214 3.54989C12.8789 4.05853 13.4749 4.68103 14 5.40713C14.5253 4.68103 15.1211 4.05853 15.7788 3.54989C17.0817 2.54224 18.5619 2.03125 20.1782 2.03125C22.3404 2.03125 24.3295 2.89706 25.7789 4.46911C27.2113 6.02279 27.9999 8.14534 27.9999 10.4461C27.9999 12.8141 27.1177 14.9817 25.2231 17.2677C23.5282 19.3129 21.0925 21.3887 18.272 23.7923C17.3081 24.6135 16.2159 25.5445 15.0822 26.5359C14.7829 26.7978 14.3984 26.9422 14 26.9422ZM7.82201 3.67144C6.12307 3.67144 4.56234 4.34948 3.42693 5.5808C2.27465 6.83071 1.63998 8.55849 1.63998 10.4461C1.63998 12.4377 2.38018 14.2188 4.03982 16.2213C5.64391 18.157 8.02986 20.1902 10.7924 22.5446L10.7976 22.5488C11.7633 23.3719 12.8582 24.305 13.9976 25.3014C15.1439 24.3031 16.2404 23.3685 17.2082 22.5441C19.9705 20.1898 22.3563 18.157 23.9603 16.2213C25.6198 14.2188 26.36 12.4377 26.36 10.4461C26.36 8.55849 25.7253 6.83071 24.573 5.5808C23.4378 4.34948 21.8769 3.67144 20.1782 3.67144C18.9336 3.67144 17.7909 4.06707 16.782 4.84722C15.8828 5.54278 15.2565 6.42205 14.8893 7.03728C14.7004 7.35366 14.368 7.5425 14 7.5425C13.6319 7.5425 13.2995 7.35366 13.1107 7.03728C12.7437 6.42205 12.1173 5.54278 11.218 4.84722C10.209 4.06707 9.06636 3.67144 7.82201 3.67144Z" fill="#0F2438"/>
	</svg>
	<svg id="like_small" width="21" height="19" viewBox="0 0 21 19" fill="none" xmlns="http://www.w3.org/2000/svg">
		<path d="M19.5117 1.95318C18.5194 0.984256 17.1485 0.5 15.3983 0.5C14.914 0.5 14.4197 0.583979 13.9159 0.751856C13.4119 0.919856 12.943 1.14651 12.5098 1.43165C12.076 1.71671 11.7033 1.98441 11.3905 2.23434C11.0782 2.48435 10.7812 2.75004 10.5 3.0312C10.2187 2.75004 9.92179 2.48435 9.60939 2.23434C9.29679 1.98441 8.92385 1.71688 8.49016 1.43165C8.05655 1.14639 7.58777 0.919897 7.0839 0.751856C6.58006 0.58402 6.08583 0.5 5.60149 0.5C3.85143 0.5 2.48043 0.984379 1.48827 1.95318C0.496118 2.9219 0 4.26557 0 5.98431C0 6.50776 0.0919421 7.04702 0.275457 7.60142C0.458972 8.15611 0.668099 8.62884 0.902429 9.01939C1.13672 9.40989 1.40241 9.79071 1.69929 10.1618C1.99617 10.5329 2.21314 10.7887 2.3497 10.9293C2.48638 11.0699 2.59384 11.1716 2.67195 11.2342L9.98434 18.2889C10.125 18.4295 10.2969 18.5 10.5 18.5C10.7031 18.5 10.875 18.4295 11.0156 18.2889L18.3164 11.2574C20.1055 9.46859 21 7.71077 21 5.98414C21 4.26528 20.5039 2.92173 19.5117 1.95318ZM17.2968 10.156L10.5 16.7067L3.69156 10.1442C2.23058 8.68355 1.50022 7.29666 1.50022 5.98414C1.50022 5.35143 1.5842 4.79275 1.75207 4.3085C1.92007 3.82416 2.13491 3.43928 2.39661 3.15413C2.65836 2.86891 2.97667 2.63667 3.35166 2.45685C3.72686 2.27719 4.09401 2.15607 4.45333 2.0936C4.81264 2.03121 5.19539 1.99997 5.6017 1.99997C6.00789 1.99997 6.44547 2.09947 6.91421 2.29874C7.38287 2.49794 7.81451 2.74794 8.209 3.04869C8.60357 3.34963 8.94146 3.63084 9.22283 3.89246C9.50403 4.15433 9.73832 4.39441 9.92585 4.61318C10.0664 4.78512 10.258 4.87107 10.5 4.87107C10.7422 4.87107 10.9336 4.78512 11.0743 4.61318C11.2618 4.39441 11.4962 4.15421 11.7774 3.89246C12.0587 3.63084 12.3966 3.34976 12.791 3.04869C13.1856 2.74794 13.6172 2.49794 14.0861 2.29874C14.5547 2.09951 14.9924 1.99997 15.3986 1.99997C15.8049 1.99997 16.1875 2.03121 16.547 2.0936C16.9064 2.15603 17.2736 2.27719 17.6486 2.45685C18.0237 2.63663 18.342 2.86903 18.6036 3.15413C18.8653 3.43928 19.0803 3.82416 19.2483 4.3085C19.416 4.79275 19.4999 5.35143 19.4999 5.98414C19.4999 7.29666 18.7656 8.68741 17.2968 10.156Z" fill="#005BB9"/>
	</svg>


	<svg id="slick__arrow-prev" width="10" height="18" viewBox="0 0 10 18" fill="none" xmlns="http://www.w3.org/2000/svg">
		<path d="M0.307458 9.64246L8.40198 17.7343C8.75716 18.0886 9.33261 18.0886 9.68869 17.7343C10.0439 17.38 10.0439 16.8045 9.68869 16.4503L2.23622 9.00049L9.6878 1.55071C10.043 1.19643 10.043 0.620977 9.6878 0.265795C9.33261 -0.0884896 8.75627 -0.0884896 8.40108 0.265795L0.30656 8.35762C-0.0432407 8.70824 -0.0432398 9.29274 0.307458 9.64246Z" fill="#0F2438"/>
	</svg>
	<svg id="slick__arrow-next" width="10" height="18" viewBox="0 0 10 18" fill="none" xmlns="http://www.w3.org/2000/svg">
		<path d="M9.69254 8.35754L1.59802 0.265714C1.24284 -0.088571 0.667388 -0.0885711 0.311308 0.265714C-0.0438738 0.619999 -0.0438739 1.19545 0.311308 1.54974L7.76378 8.99951L0.312203 16.4493C-0.0429796 16.8036 -0.0429797 17.379 0.312202 17.7342C0.667385 18.0885 1.24373 18.0885 1.59892 17.7342L9.69344 9.64238C10.0432 9.29176 10.0432 8.70727 9.69254 8.35754Z" fill="#0F2438"/>
	</svg>
	<svg id="arrow__seeMore" width="45" height="8" viewBox="0 0 45 8" fill="none" xmlns="http://www.w3.org/2000/svg">
		<path d="M44.3536 4.35355C44.5488 4.15829 44.5488 3.84171 44.3536 3.64645L41.1716 0.464466C40.9763 0.269204 40.6597 0.269204 40.4645 0.464466C40.2692 0.659728 40.2692 0.976311 40.4645 1.17157L43.2929 4L40.4645 6.82843C40.2692 7.02369 40.2692 7.34027 40.4645 7.53553C40.6597 7.7308 40.9763 7.7308 41.1716 7.53553L44.3536 4.35355ZM0 4.5H44V3.5H0V4.5Z" fill="#D41A36"/>
	</svg>


</svg>